<svg width="20" height="20" viewBox="0 0 20 20" fill="#27B42B" xmlns="http://www.w3.org/2000/svg">
<g clip-path="url(#clip0_770_558)">
<path d="M9.99984 18.3333C5.39734 18.3333 1.6665 14.6025 1.6665 10C1.6665 5.39751 5.39734 1.66667 9.99984 1.66667C14.6023 1.66667 18.3332 5.39751 18.3332 10C18.3332 14.6025 14.6023 18.3333 9.99984 18.3333ZM9.99984 16.6667C11.7679 16.6667 13.4636 15.9643 14.7139 14.7141C15.9641 13.4638 16.6665 11.7681 16.6665 10C16.6665 8.23189 15.9641 6.5362 14.7139 5.28596C13.4636 4.03572 11.7679 3.33334 9.99984 3.33334C8.23173 3.33334 6.53603 4.03572 5.28579 5.28596C4.03555 6.5362 3.33317 8.23189 3.33317 10C3.33317 11.7681 4.03555 13.4638 5.28579 14.7141C6.53603 15.9643 8.23173 16.6667 9.99984 16.6667ZM7.08317 11.6667H11.6665C11.777 11.6667 11.883 11.6228 11.9611 11.5446C12.0393 11.4665 12.0832 11.3605 12.0832 11.25C12.0832 11.1395 12.0393 11.0335 11.9611 10.9554C11.883 10.8772 11.777 10.8333 11.6665 10.8333H8.33317C7.78064 10.8333 7.25073 10.6138 6.86003 10.2231C6.46933 9.83244 6.24984 9.30254 6.24984 8.75C6.24984 8.19747 6.46933 7.66757 6.86003 7.27687C7.25073 6.88617 7.78064 6.66667 8.33317 6.66667H9.1665V5.00001H10.8332V6.66667H12.9165V8.33334H8.33317C8.22266 8.33334 8.11668 8.37724 8.03854 8.45538C7.9604 8.53352 7.9165 8.6395 7.9165 8.75C7.9165 8.86051 7.9604 8.96649 8.03854 9.04463C8.11668 9.12277 8.22266 9.16667 8.33317 9.16667H11.6665C12.219 9.16667 12.7489 9.38617 13.1396 9.77687C13.5303 10.1676 13.7498 10.6975 13.7498 11.25C13.7498 11.8025 13.5303 12.3324 13.1396 12.7231C12.7489 13.1138 12.219 13.3333 11.6665 13.3333H10.8332V15H9.1665V13.3333H7.08317V11.6667Z" fill="#27B42B"/>
</g>
<defs>
<clipPath id="clip0_770_558">
<rect width="20" height="20" fill="#27B42B"/>
</clipPath>
</defs>
</svg>
