<svg xmlns="http://www.w3.org/2000/svg" viewBox="0 0 1431.47 342.92"><defs><style>.cls-1,.cls-2,.cls-3,.cls-4{fill:#005b50;}.cls-2,.cls-3{stroke:#005b50;stroke-miterlimit:10;}.cls-2{stroke-width:1.5px;}.cls-3{stroke-width:5px;}.cls-4{font-size:55px;font-family:Montserrat-Regular, Montserrat;}.cls-5{letter-spacing:-0.01em;}.cls-6{letter-spacing:-0.02em;}.cls-7{letter-spacing:-0.05em;}</style></defs><title>Asset 221.1</title><g id="Layer_2" data-name="Layer 2"><g id="Layer_1-2" data-name="Layer 1"><path class="cls-1" d="M405.29,150.15l-8.58,48a4.84,4.84,0,0,1-1.29,2.47A4.48,4.48,0,0,1,393,202a4.75,4.75,0,0,1-2.77-.32,4.46,4.46,0,0,1-2.05-1.79l-17-28-17,28a4.24,4.24,0,0,1-1.67,1.61,4.68,4.68,0,0,1-2.5.57,4.59,4.59,0,0,1-2.48-.87,4.5,4.5,0,0,1-1.83-3l-8.65-48h9.44L352.56,184l14.66-23.38a4.21,4.21,0,0,1,1.66-1.61,4.69,4.69,0,0,1,2.27-.57,4.59,4.59,0,0,1,2.25.57,4.9,4.9,0,0,1,1.72,1.61L389.7,184l6.15-33.86Z"/><path class="cls-1" d="M513.74,159.45H493.26v42H484v-42H463.44v-9.3h50.3Z"/><path class="cls-1" d="M566.9,201.42H533.37a15,15,0,0,1-4.22-.68,12.4,12.4,0,0,1-4.23-2.23,12.64,12.64,0,0,1-3.26-4,13,13,0,0,1-1.3-6.1V154.84a4.85,4.85,0,0,1,.35-1.83,4.78,4.78,0,0,1,1-1.5,4.35,4.35,0,0,1,1.48-1,4.74,4.74,0,0,1,1.86-.36H566.9v9.3H529.65v28.92a3.76,3.76,0,0,0,1,2.79,3.82,3.82,0,0,0,2.82,1H566.9Zm-4.18-20.95H533.37V171.1h29.35Z"/><path class="cls-1" d="M627.11,167.38a18.76,18.76,0,0,1-.79,5.69,15.83,15.83,0,0,1-2.12,4.41,14.88,14.88,0,0,1-3.1,3.27,18.17,18.17,0,0,1-3.66,2.24,17.8,17.8,0,0,1-3.86,1.27,18.73,18.73,0,0,1-3.67.39l19.42,16.77H615l-19.37-16.77h-6.69v-9.29h21a10.64,10.64,0,0,0,3.2-.74,7.9,7.9,0,0,0,2.51-1.59,6.74,6.74,0,0,0,1.62-2.41,8.59,8.59,0,0,0,.57-3.24v-5.86a2.94,2.94,0,0,0-.19-1.2,1.44,1.44,0,0,0-.5-.6,1.47,1.47,0,0,0-.65-.24l-.62,0H585.17v42h-9.29V154.84a4.67,4.67,0,0,1,.36-1.83,4.59,4.59,0,0,1,1-1.5,4.45,4.45,0,0,1,1.48-1,4.74,4.74,0,0,1,1.86-.36h35.29a11.19,11.19,0,0,1,5.25,1.13,10.68,10.68,0,0,1,3.49,2.82,11,11,0,0,1,1.93,3.67,12.91,12.91,0,0,1,.59,3.68Z"/><path class="cls-1" d="M685.71,186.33a16.44,16.44,0,0,1-.7,4.95,15,15,0,0,1-1.84,3.88,12.42,12.42,0,0,1-2.68,2.86A16.34,16.34,0,0,1,677.3,200a16,16,0,0,1-3.34,1.11,15.46,15.46,0,0,1-3.2.36H634.9v-9.3h35.86a5.45,5.45,0,0,0,4.17-1.57,5.89,5.89,0,0,0,1.48-4.22A6.87,6.87,0,0,0,676,184a5.66,5.66,0,0,0-1.13-1.86,4.89,4.89,0,0,0-1.79-1.21,6.06,6.06,0,0,0-2.34-.43H649.38a16.46,16.46,0,0,1-4.86-.81,14.3,14.3,0,0,1-4.84-2.59,14.13,14.13,0,0,1-3.72-4.68,17.52,17.52,0,0,1,0-14.14,14.34,14.34,0,0,1,3.72-4.68,14.19,14.19,0,0,1,4.84-2.61,16.46,16.46,0,0,1,4.86-.81H681v9.3H649.38a5.32,5.32,0,0,0-4.13,1.61,6,6,0,0,0-1.48,4.25,5.89,5.89,0,0,0,1.48,4.24,5.47,5.47,0,0,0,4.13,1.55h21.45a17.12,17.12,0,0,1,3.19.41,16,16,0,0,1,6.5,3.15,13.64,13.64,0,0,1,2.67,2.88A14.52,14.52,0,0,1,685,181.4,16.64,16.64,0,0,1,685.71,186.33Z"/><path class="cls-1" d="M753.1,201.42h-9.37V170.89l-16.48,29a4,4,0,0,1-1.7,1.68,5,5,0,0,1-2.34.57,4.69,4.69,0,0,1-2.27-.57,4.07,4.07,0,0,1-1.66-1.68l-16.56-29v30.53h-9.29v-47.3a4.67,4.67,0,0,1,3.43-4.54,5.08,5.08,0,0,1,1.5-.13,5.18,5.18,0,0,1,1.45.33,4.53,4.53,0,0,1,1.27.75,4.34,4.34,0,0,1,1,1.16l21.17,36.79,21.16-36.79a4.55,4.55,0,0,1,2.27-1.93,4.86,4.86,0,0,1,3-.18,4.67,4.67,0,0,1,2.47,1.68,4.6,4.6,0,0,1,1,2.86Z"/><path class="cls-1" d="M773.26,201.42H764V150.15h9.3Z"/><path class="cls-1" d="M830.46,159.45H810v42h-9.3v-42H780.16v-9.3h50.3Z"/><path class="cls-1" d="M846.66,171.1H879.3V150.15h9.29v51.27H879.3V180.47H846.66v20.95h-9.3V150.15h9.3Z"/><path class="cls-2" d="M410.05,197l18.36-45.38a3.33,3.33,0,0,1,3.08-2.07h8.88a3.31,3.31,0,0,1,3.11,2.16l17.06,45.83a3.33,3.33,0,0,1-3.12,4.48h-3.26a2.33,2.33,0,0,1-2.22-1.64l-12.31-37.41c-.53-1.7-1.78-4.62-3.52-4.86a.83.83,0,0,0-.44.06l-1.54.53c-1.77,0-1.86,3.2-2.44,4.88L418.81,200.4a2.33,2.33,0,0,1-2.2,1.57h-3.18A3.65,3.65,0,0,1,410.05,197Z"/><path class="cls-1" d="M116.08,248h0A116.08,116.08,0,0,1,0,131.92V90.75A16.75,16.75,0,0,1,16.75,74h99.33Z"/><path class="cls-1" d="M220.52,247.67h0a94.46,94.46,0,0,1-94.46-94.45V126.59A13.64,13.64,0,0,1,139.7,113h80.82Z"/><path class="cls-1" d="M282,247.94h0A52,52,0,0,1,230.07,196V181.34a7.49,7.49,0,0,1,7.5-7.49H282Z"/><line class="cls-3" x1="944.59" x2="944.59" y2="324"/><text class="cls-4" transform="translate(987.85 128.72)">CHA<tspan class="cls-5" x="124.02" y="0">R</tspan><tspan x="163.51" y="0">TERED</tspan><tspan x="0" y="66">PROFESSIONAL</tspan><tspan x="0" y="132">AC</tspan><tspan class="cls-6" x="81.29" y="132">C</tspan><tspan x="120.94" y="132">OUN</tspan><tspan class="cls-7" x="255.36" y="132">T</tspan><tspan x="285.56" y="132">ANTS</tspan></text></g></g></svg>