<svg width="1495" height="324" viewBox="0 0 1495 324" fill="#005b50" xmlns="http://www.w3.org/2000/svg">
<path d="M423.165 150.15L414.206 198.15C414.02 199.082 413.551 199.941 412.859 200.62C412.192 201.325 411.307 201.809 410.333 202C409.357 202.173 408.349 202.061 407.441 201.68C406.55 201.311 405.801 200.686 405.3 199.89L387.55 171.89L369.801 199.89C369.387 200.571 368.783 201.129 368.057 201.5C367.259 201.919 366.355 202.116 365.447 202.07C364.513 202.028 363.613 201.725 362.857 201.2C362.345 200.848 361.912 200.401 361.584 199.886C361.255 199.371 361.039 198.797 360.947 198.2L351.915 150.2H361.771L368.109 184L383.416 160.62C383.825 159.939 384.426 159.381 385.149 159.01C385.876 158.631 386.691 158.435 387.519 158.44C388.34 158.434 389.149 158.63 389.868 159.01C390.595 159.399 391.211 159.951 391.664 160.62L406.887 184L413.308 150.14L423.165 150.15Z" fill="#005b50"/>
<path d="M536.398 159.45H515.015V201.45H505.347V159.45H483.88V150.15H536.398V159.45Z" fill="#005b50"/>
<path d="M591.902 201.42H556.894C555.399 201.396 553.915 201.167 552.488 200.74C550.878 200.278 549.378 199.521 548.071 198.51C546.661 197.415 545.502 196.053 544.667 194.51C543.705 192.612 543.239 190.519 543.31 188.41V154.84C543.307 154.213 543.431 153.592 543.675 153.01C543.921 152.451 544.275 151.942 544.719 151.51C545.157 151.078 545.683 150.737 546.265 150.51C546.88 150.266 547.541 150.144 548.207 150.15H591.902V159.45H553.01V188.37C552.977 188.878 553.053 189.388 553.232 189.868C553.412 190.347 553.691 190.787 554.054 191.16C554.449 191.508 554.913 191.776 555.419 191.947C555.925 192.119 556.462 192.192 556.998 192.16H591.902V201.42ZM587.538 180.47H556.894V171.1H587.538V180.47Z" fill="#005b50"/>
<path d="M654.768 167.38C654.8 169.306 654.521 171.225 653.943 173.07C653.448 174.641 652.702 176.129 651.73 177.48C650.83 178.721 649.739 179.824 648.493 180.75C647.316 181.639 646.033 182.39 644.671 182.99C643.383 183.559 642.031 183.985 640.641 184.26C639.38 184.51 638.097 184.641 636.809 184.65L657.086 201.42H642.124L621.899 184.65H614.914V175.36H636.841C637.988 175.28 639.115 175.031 640.182 174.62C641.152 174.253 642.042 173.714 642.802 173.03C643.542 172.354 644.12 171.531 644.494 170.62C644.908 169.587 645.11 168.487 645.089 167.38V161.52C645.111 161.111 645.043 160.702 644.891 160.32C644.778 160.078 644.597 159.87 644.369 159.72C644.166 159.589 643.933 159.507 643.69 159.48H643.043H610.978V201.48H601.278V154.84C601.274 154.212 601.402 153.59 601.654 153.01C601.895 152.449 602.25 151.939 602.698 151.51C603.138 151.08 603.663 150.74 604.244 150.51C604.859 150.266 605.52 150.144 606.186 150.15H643.032C644.928 150.095 646.809 150.483 648.514 151.28C649.923 151.962 651.165 152.923 652.158 154.1C653.066 155.19 653.75 156.435 654.173 157.77C654.563 158.962 654.77 160.201 654.789 161.45L654.768 167.38Z" fill="#005b50"/>
<path d="M715.952 186.33C715.973 188.006 715.727 189.675 715.221 191.28C714.778 192.655 714.131 193.962 713.3 195.16C712.531 196.249 711.587 197.214 710.502 198.02C709.475 198.8 708.357 199.465 707.171 200C706.055 200.492 704.885 200.864 703.684 201.11C702.586 201.341 701.466 201.462 700.343 201.47H662.901V192.17H700.343C701.143 192.217 701.944 192.101 702.695 191.831C703.445 191.56 704.127 191.141 704.696 190.6C705.771 189.443 706.326 187.926 706.242 186.38C706.247 185.569 706.102 184.763 705.814 184C705.55 183.313 705.149 182.681 704.634 182.14C704.113 181.608 703.474 181.195 702.765 180.93C701.988 180.633 701.158 180.487 700.322 180.5H678.02C676.295 180.475 674.585 180.202 672.945 179.69C671.102 179.147 669.386 178.268 667.892 177.1C666.263 175.823 664.939 174.227 664.008 172.42C662.982 170.192 662.452 167.785 662.452 165.35C662.452 162.915 662.982 160.507 664.008 158.28C664.945 156.476 666.268 154.881 667.892 153.6C669.382 152.423 671.099 151.536 672.945 150.99C674.585 150.478 676.295 150.205 678.02 150.18H711.034V159.48H678.02C677.222 159.436 676.424 159.556 675.68 159.834C674.936 160.112 674.263 160.54 673.707 161.09C672.636 162.261 672.082 163.785 672.162 165.34C672.072 166.893 672.628 168.418 673.707 169.58C674.274 170.111 674.951 170.523 675.693 170.79C676.436 171.057 677.228 171.172 678.02 171.13H700.416C701.537 171.166 702.652 171.303 703.746 171.54C706.23 172.081 708.551 173.158 710.533 174.69C711.602 175.516 712.541 176.486 713.321 177.57C714.143 178.751 714.78 180.042 715.211 181.4C715.715 182.998 715.964 184.66 715.952 186.33Z" fill="#005b50"/>
<path d="M786.315 201.42H776.531V170.89L759.324 199.89C758.925 200.61 758.306 201.196 757.549 201.57C756.796 201.948 755.957 202.144 755.106 202.14C754.279 202.145 753.463 201.949 752.736 201.57C751.998 201.186 751.395 200.602 751.003 199.89L733.713 170.89V201.42H724.013V154.12C724.004 153.091 724.351 152.088 724.998 151.267C725.646 150.446 726.558 149.853 727.594 149.58C728.107 149.462 728.634 149.419 729.16 149.45C729.679 149.49 730.189 149.601 730.674 149.78C731.156 149.959 731.604 150.212 732 150.53C732.417 150.854 732.771 151.247 733.044 151.69L755.148 188.48L777.241 151.69C777.783 150.81 778.618 150.13 779.611 149.76C780.609 149.385 781.706 149.322 782.744 149.58C783.772 149.855 784.678 150.445 785.323 151.26C785.998 152.073 786.366 153.081 786.367 154.12L786.315 201.42Z" fill="#005b50"/>
<path d="M807.364 201.42H797.695V150.15H807.405L807.364 201.42Z" fill="#005b50"/>
<path d="M867.087 159.45H845.724V201.45H836.014V159.45H814.568V150.15H867.087V159.45Z" fill="#005b50"/>
<path d="M884.001 171.1H918.081V150.15H927.781V201.42H918.081V180.47H884.001V201.42H874.291V150.15H884.001V171.1Z" fill="#005b50"/>
<path d="M428.135 197L447.305 151.62C447.566 151.008 448.011 150.485 448.584 150.116C449.156 149.748 449.831 149.551 450.521 149.55H459.792C460.499 149.549 461.189 149.755 461.77 150.141C462.351 150.528 462.794 151.075 463.039 151.71L480.852 197.54C481.045 198.043 481.109 198.583 481.037 199.115C480.966 199.646 480.762 200.153 480.442 200.593C480.122 201.033 479.696 201.392 479.201 201.641C478.705 201.889 478.154 202.019 477.594 202.02H474.19C473.672 202.019 473.168 201.859 472.751 201.564C472.334 201.269 472.026 200.854 471.872 200.38L459.02 162.97C458.466 161.27 457.161 158.35 455.344 158.11C455.188 158.09 455.029 158.11 454.885 158.17L453.277 158.7C451.429 158.7 451.335 161.9 450.729 163.58L437.281 200.4C437.116 200.858 436.806 201.255 436.395 201.537C435.983 201.818 435.49 201.97 434.984 201.97H431.664C431.047 201.966 430.439 201.819 429.895 201.541C429.35 201.263 428.884 200.862 428.537 200.373C428.189 199.884 427.971 199.321 427.902 198.734C427.832 198.146 427.912 197.551 428.135 197Z" fill="#005b50" stroke="white" stroke-width="1.5" stroke-miterlimit="10"/>
<path d="M121.2 248C89.0555 248 58.2279 235.77 35.4985 214.001C12.7692 192.232 0 162.706 0 131.92L0 90.75C0 86.3076 1.84256 82.0472 5.12233 78.906C8.40211 75.7647 12.8504 74 17.4887 74H121.2V248Z" fill="#005b50"/>
<path d="M230.245 247.67C204.09 247.67 179.005 237.719 160.51 220.007C142.014 202.294 131.622 178.271 131.619 153.22V126.59C131.633 122.981 133.139 119.525 135.809 116.977C138.478 114.43 142.093 113 145.861 113H230.245V247.67Z" fill="#005b50"/>
<path d="M294.438 247.94C280.062 247.922 266.281 242.443 256.116 232.706C245.952 222.969 240.234 209.769 240.218 196V181.34C240.218 180.356 240.42 179.381 240.814 178.471C241.208 177.562 241.785 176.736 242.512 176.04C243.239 175.345 244.103 174.793 245.053 174.417C246.003 174.042 247.021 173.849 248.049 173.85H294.438V247.94Z" fill="#005b50"/>
<path d="M986.25 0V324" stroke="white" stroke-width="5" stroke-miterlimit="10"/>
<path d="M1054.3 120.835C1056.53 120.835 1058.46 120.468 1060.07 119.735C1061.69 118.965 1063.37 117.755 1065.13 116.105L1069.31 120.395C1065.24 124.905 1060.29 127.16 1054.46 127.16C1048.67 127.16 1043.85 125.29 1040 121.55C1036.18 117.81 1034.28 113.08 1034.28 107.36C1034.28 101.64 1036.22 96.8733 1040.11 93.06C1044.03 89.2466 1048.96 87.34 1054.9 87.34C1060.88 87.34 1065.87 89.54 1069.86 93.94L1065.74 98.45C1063.9 96.69 1062.16 95.4616 1060.51 94.765C1058.9 94.0683 1056.99 93.72 1054.79 93.72C1050.91 93.72 1047.64 94.985 1045 97.515C1042.36 100.008 1041.04 103.217 1041.04 107.14C1041.04 111.027 1042.34 114.29 1044.95 116.93C1047.59 119.533 1050.7 120.835 1054.3 120.835ZM1077.25 126.72V88.275H1083.74V104.94H1102.83V88.275H1109.32V126.72H1102.83V110.99H1083.74V126.72H1077.25ZM1125.45 117.975L1121.6 126.72H1114.67L1131.61 88.275H1138.54L1155.48 126.72H1148.55L1144.7 117.975H1125.45ZM1142.06 111.98L1135.07 96.14L1128.09 111.98H1142.06ZM1191.52 100.76C1191.52 107.103 1188.75 111.1 1183.21 112.75L1193.28 126.72H1185.03L1175.84 113.795H1167.32V126.72H1160.83V88.275H1175.13C1180.99 88.275 1185.19 89.265 1187.72 91.245C1190.25 93.225 1191.52 96.3966 1191.52 100.76ZM1175.4 107.91C1179.07 107.91 1181.56 107.342 1182.88 106.205C1184.2 105.068 1184.86 103.253 1184.86 100.76C1184.86 98.23 1184.18 96.5066 1182.83 95.59C1181.47 94.6366 1179.05 94.16 1175.57 94.16H1167.32V107.91H1175.4ZM1214.82 94.215V126.72H1208.33V94.215H1196.67V88.275H1226.48V94.215H1214.82ZM1260.5 88.275V94.38H1239.99V104.555H1258.41V110.33H1239.99V120.615H1261.16V126.72H1233.5V88.275H1260.5ZM1300.17 100.76C1300.17 107.103 1297.4 111.1 1291.87 112.75L1301.93 126.72H1293.68L1284.5 113.795H1275.97V126.72H1269.48V88.275H1283.78C1289.65 88.275 1293.85 89.265 1296.38 91.245C1298.91 93.225 1300.17 96.3966 1300.17 100.76ZM1284.06 107.91C1287.72 107.91 1290.22 107.342 1291.54 106.205C1292.86 105.068 1293.52 103.253 1293.52 100.76C1293.52 98.23 1292.84 96.5066 1291.48 95.59C1290.13 94.6366 1287.71 94.16 1284.22 94.16H1275.97V107.91H1284.06ZM1336.5 88.275V94.38H1315.99V104.555H1334.41V110.33H1315.99V120.615H1337.16V126.72H1309.5V88.275H1336.5ZM1358.68 88.275C1365.58 88.275 1370.88 89.9616 1374.58 93.335C1378.28 96.6716 1380.13 101.328 1380.13 107.305C1380.13 113.282 1378.34 118.012 1374.74 121.495C1371.15 124.978 1365.65 126.72 1358.24 126.72H1345.48V88.275H1358.68ZM1373.59 107.47C1373.59 98.67 1368.55 94.27 1358.46 94.27H1351.97V120.615H1359.18C1363.84 120.615 1367.39 119.515 1369.85 117.315C1372.34 115.078 1373.59 111.797 1373.59 107.47Z" fill="#005b50"/>
<path d="M1049.95 154.275C1055.78 154.275 1060.04 155.393 1062.71 157.63C1065.39 159.867 1066.73 163.313 1066.73 167.97C1066.73 172.627 1065.35 176.037 1062.6 178.2C1059.89 180.363 1055.71 181.445 1050.06 181.445H1043.24V192.72H1036.75V154.275H1049.95ZM1050.78 175.56C1054.37 175.56 1056.81 174.882 1058.09 173.525C1059.41 172.132 1060.07 170.115 1060.07 167.475C1060.07 164.798 1059.25 162.91 1057.6 161.81C1055.95 160.71 1053.36 160.16 1049.84 160.16H1043.24V175.56H1050.78ZM1105.04 166.76C1105.04 173.103 1102.27 177.1 1096.74 178.75L1106.8 192.72H1098.55L1089.37 179.795H1080.84V192.72H1074.35V154.275H1088.65C1094.52 154.275 1098.72 155.265 1101.25 157.245C1103.78 159.225 1105.04 162.397 1105.04 166.76ZM1088.93 173.91C1092.59 173.91 1095.09 173.342 1096.41 172.205C1097.73 171.068 1098.39 169.253 1098.39 166.76C1098.39 164.23 1097.71 162.507 1096.35 161.59C1094.99 160.637 1092.57 160.16 1089.09 160.16H1080.84V173.91H1088.93ZM1141.76 163.35C1139.15 160.637 1135.94 159.28 1132.13 159.28C1128.32 159.28 1125.09 160.637 1122.45 163.35C1119.85 166.063 1118.55 169.363 1118.55 173.25C1118.55 177.1 1119.85 180.382 1122.45 183.095C1125.09 185.808 1128.32 187.165 1132.13 187.165C1135.94 187.165 1139.15 185.808 1141.76 183.095C1144.4 180.382 1145.72 177.1 1145.72 173.25C1145.72 169.363 1144.4 166.063 1141.76 163.35ZM1146.54 187.44C1142.65 191.217 1137.85 193.105 1132.13 193.105C1126.41 193.105 1121.61 191.217 1117.72 187.44C1113.83 183.627 1111.89 178.897 1111.89 173.25C1111.89 167.567 1113.83 162.837 1117.72 159.06C1121.61 155.247 1126.41 153.34 1132.13 153.34C1137.85 153.34 1142.65 155.247 1146.54 159.06C1150.43 162.837 1152.37 167.567 1152.37 173.25C1152.37 178.897 1150.43 183.627 1146.54 187.44ZM1167.05 160.325V170.885H1184.1V176.88H1167.05V192.72H1160.56V154.275H1186.19L1186.13 160.325H1167.05ZM1220.76 154.275V160.38H1200.24V170.555H1218.67V176.33H1200.24V186.615H1221.42V192.72H1193.75V154.275H1220.76ZM1241.34 159.335C1239.47 159.335 1237.93 159.72 1236.72 160.49C1235.51 161.26 1234.91 162.433 1234.91 164.01C1234.91 165.55 1235.51 166.742 1236.72 167.585C1237.93 168.392 1240.5 169.272 1244.42 170.225C1248.38 171.178 1251.35 172.517 1253.33 174.24C1255.35 175.963 1256.36 178.512 1256.36 181.885C1256.36 185.222 1255.09 187.935 1252.56 190.025C1250.03 192.115 1246.71 193.16 1242.61 193.16C1236.59 193.16 1231.26 191.088 1226.6 186.945L1230.67 182.05C1234.56 185.423 1238.59 187.11 1242.77 187.11C1244.86 187.11 1246.51 186.67 1247.72 185.79C1248.97 184.873 1249.59 183.682 1249.59 182.215C1249.59 180.712 1249 179.557 1247.83 178.75C1246.69 177.907 1244.71 177.155 1241.89 176.495C1239.07 175.798 1236.92 175.175 1235.46 174.625C1233.99 174.038 1232.69 173.287 1231.55 172.37C1229.28 170.647 1228.14 168.007 1228.14 164.45C1228.14 160.893 1229.42 158.162 1231.99 156.255C1234.59 154.312 1237.8 153.34 1241.62 153.34C1244.07 153.34 1246.51 153.743 1248.93 154.55C1251.35 155.357 1253.44 156.493 1255.2 157.96L1251.74 162.855C1250.6 161.828 1249.06 160.985 1247.12 160.325C1245.17 159.665 1243.25 159.335 1241.34 159.335ZM1275.98 159.335C1274.11 159.335 1272.57 159.72 1271.36 160.49C1270.15 161.26 1269.55 162.433 1269.55 164.01C1269.55 165.55 1270.15 166.742 1271.36 167.585C1272.57 168.392 1275.14 169.272 1279.06 170.225C1283.02 171.178 1285.99 172.517 1287.97 174.24C1289.99 175.963 1291 178.512 1291 181.885C1291 185.222 1289.73 187.935 1287.2 190.025C1284.67 192.115 1281.36 193.16 1277.25 193.16C1271.24 193.16 1265.9 191.088 1261.24 186.945L1265.31 182.05C1269.2 185.423 1273.23 187.11 1277.41 187.11C1279.5 187.11 1281.15 186.67 1282.36 185.79C1283.61 184.873 1284.23 183.682 1284.23 182.215C1284.23 180.712 1283.65 179.557 1282.47 178.75C1281.34 177.907 1279.36 177.155 1276.53 176.495C1273.71 175.798 1271.57 175.175 1270.1 174.625C1268.63 174.038 1267.33 173.287 1266.19 172.37C1263.92 170.647 1262.78 168.007 1262.78 164.45C1262.78 160.893 1264.07 158.162 1266.63 156.255C1269.24 154.312 1272.45 153.34 1276.26 153.34C1278.72 153.34 1281.15 153.743 1283.57 154.55C1285.99 155.357 1288.08 156.493 1289.84 157.96L1286.38 162.855C1285.24 161.828 1283.7 160.985 1281.76 160.325C1279.82 159.665 1277.89 159.335 1275.98 159.335ZM1299.02 154.275H1305.51V192.72H1299.02V154.275ZM1343.55 163.35C1340.94 160.637 1337.74 159.28 1333.92 159.28C1330.11 159.28 1326.88 160.637 1324.24 163.35C1321.64 166.063 1320.34 169.363 1320.34 173.25C1320.34 177.1 1321.64 180.382 1324.24 183.095C1326.88 185.808 1330.11 187.165 1333.92 187.165C1337.74 187.165 1340.94 185.808 1343.55 183.095C1346.19 180.382 1347.51 177.1 1347.51 173.25C1347.51 169.363 1346.19 166.063 1343.55 163.35ZM1348.33 187.44C1344.45 191.217 1339.64 193.105 1333.92 193.105C1328.2 193.105 1323.4 191.217 1319.51 187.44C1315.63 183.627 1313.68 178.897 1313.68 173.25C1313.68 167.567 1315.63 162.837 1319.51 159.06C1323.4 155.247 1328.2 153.34 1333.92 153.34C1339.64 153.34 1344.45 155.247 1348.33 159.06C1352.22 162.837 1354.16 167.567 1354.16 173.25C1354.16 178.897 1352.22 183.627 1348.33 187.44ZM1391.17 154.275H1397.66V192.72H1390.62L1368.84 164.67V192.72H1362.35V154.275H1368.84L1391.17 182.985V154.275ZM1413.77 183.975L1409.92 192.72H1402.99L1419.93 154.275H1426.86L1443.8 192.72H1436.87L1433.02 183.975H1413.77ZM1430.38 177.98L1423.4 162.14L1416.41 177.98H1430.38ZM1449.15 192.72V154.275H1455.64V186.56H1473.18V192.72H1449.15Z" fill="#005b50"/>
<path d="M1042.2 249.975L1038.35 258.72H1031.42L1048.36 220.275H1055.29L1072.23 258.72H1065.3L1061.45 249.975H1042.2ZM1058.81 243.98L1051.82 228.14L1044.84 243.98H1058.81ZM1095.12 252.835C1097.35 252.835 1099.28 252.468 1100.89 251.735C1102.51 250.965 1104.19 249.755 1105.95 248.105L1110.13 252.395C1106.06 256.905 1101.11 259.16 1095.28 259.16C1089.49 259.16 1084.67 257.29 1080.82 253.55C1077 249.81 1075.1 245.08 1075.1 239.36C1075.1 233.64 1077.04 228.873 1080.93 225.06C1084.85 221.247 1089.78 219.34 1095.72 219.34C1101.7 219.34 1106.69 221.54 1110.68 225.94L1106.56 230.45C1104.72 228.69 1102.98 227.462 1101.33 226.765C1099.72 226.068 1097.81 225.72 1095.61 225.72C1091.73 225.72 1088.46 226.985 1085.82 229.515C1083.18 232.008 1081.86 235.217 1081.86 239.14C1081.86 243.027 1083.16 246.29 1085.77 248.93C1088.41 251.533 1091.52 252.835 1095.12 252.835ZM1135.62 252.835C1137.85 252.835 1139.78 252.468 1141.39 251.735C1143 250.965 1144.69 249.755 1146.45 248.105L1150.63 252.395C1146.56 256.905 1141.61 259.16 1135.78 259.16C1129.99 259.16 1125.17 257.29 1121.32 253.55C1117.5 249.81 1115.6 245.08 1115.6 239.36C1115.6 233.64 1117.54 228.873 1121.43 225.06C1125.35 221.247 1130.28 219.34 1136.22 219.34C1142.2 219.34 1147.18 221.54 1151.18 225.94L1147.06 230.45C1145.22 228.69 1143.48 227.462 1141.83 226.765C1140.22 226.068 1138.31 225.72 1136.11 225.72C1132.22 225.72 1128.96 226.985 1126.32 229.515C1123.68 232.008 1122.36 235.217 1122.36 239.14C1122.36 243.027 1123.66 246.29 1126.27 248.93C1128.91 251.533 1132.02 252.835 1135.62 252.835ZM1185.15 229.35C1182.55 226.637 1179.34 225.28 1175.53 225.28C1171.72 225.28 1168.49 226.637 1165.85 229.35C1163.25 232.063 1161.94 235.363 1161.94 239.25C1161.94 243.1 1163.25 246.382 1165.85 249.095C1168.49 251.808 1171.72 253.165 1175.53 253.165C1179.34 253.165 1182.55 251.808 1185.15 249.095C1187.79 246.382 1189.11 243.1 1189.11 239.25C1189.11 235.363 1187.79 232.063 1185.15 229.35ZM1189.94 253.44C1186.05 257.217 1181.25 259.105 1175.53 259.105C1169.81 259.105 1165.01 257.217 1161.12 253.44C1157.23 249.627 1155.29 244.897 1155.29 239.25C1155.29 233.567 1157.23 228.837 1161.12 225.06C1165.01 221.247 1169.81 219.34 1175.53 219.34C1181.25 219.34 1186.05 221.247 1189.94 225.06C1193.83 228.837 1195.77 233.567 1195.77 239.25C1195.77 244.897 1193.83 249.627 1189.94 253.44ZM1212.59 249.92C1214.35 251.973 1216.73 253 1219.74 253C1222.75 253 1225.13 251.973 1226.89 249.92C1228.65 247.867 1229.53 245.08 1229.53 241.56V220.275H1236.02V241.835C1236.02 247.372 1234.5 251.643 1231.46 254.65C1228.41 257.62 1224.51 259.105 1219.74 259.105C1214.97 259.105 1211.07 257.62 1208.03 254.65C1204.98 251.643 1203.46 247.372 1203.46 241.835V220.275H1209.95V241.56C1209.95 245.08 1210.83 247.867 1212.59 249.92ZM1274.99 220.275H1281.48V258.72H1274.44L1252.66 230.67V258.72H1246.17V220.275H1252.66L1274.99 248.985V220.275ZM1306.67 226.215V258.72H1300.18V226.215H1288.52V220.275H1318.33V226.215H1306.67ZM1327.78 249.975L1323.93 258.72H1317L1333.94 220.275H1340.87L1357.81 258.72H1350.88L1347.03 249.975H1327.78ZM1344.39 243.98L1337.4 228.14L1330.42 243.98H1344.39ZM1391.97 220.275H1398.46V258.72H1391.42L1369.64 230.67V258.72H1363.15V220.275H1369.64L1391.97 248.985V220.275ZM1423.65 226.215V258.72H1417.16V226.215H1405.5V220.275H1435.31V226.215H1423.65ZM1453.93 225.335C1452.06 225.335 1450.52 225.72 1449.31 226.49C1448.1 227.26 1447.49 228.433 1447.49 230.01C1447.49 231.55 1448.1 232.742 1449.31 233.585C1450.52 234.392 1453.09 235.272 1457.01 236.225C1460.97 237.178 1463.94 238.517 1465.92 240.24C1467.94 241.963 1468.94 244.512 1468.94 247.885C1468.94 251.222 1467.68 253.935 1465.15 256.025C1462.62 258.115 1459.3 259.16 1455.19 259.16C1449.18 259.16 1443.85 257.088 1439.19 252.945L1443.26 248.05C1447.15 251.423 1451.18 253.11 1455.36 253.11C1457.45 253.11 1459.1 252.67 1460.31 251.79C1461.56 250.873 1462.18 249.682 1462.18 248.215C1462.18 246.712 1461.59 245.557 1460.42 244.75C1459.28 243.907 1457.3 243.155 1454.48 242.495C1451.66 241.798 1449.51 241.175 1448.04 240.625C1446.58 240.038 1445.28 239.287 1444.14 238.37C1441.87 236.647 1440.73 234.007 1440.73 230.45C1440.73 226.893 1442.01 224.162 1444.58 222.255C1447.18 220.312 1450.39 219.34 1454.2 219.34C1456.66 219.34 1459.1 219.743 1461.52 220.55C1463.94 221.357 1466.03 222.493 1467.79 223.96L1464.32 228.855C1463.19 227.828 1461.65 226.985 1459.7 226.325C1457.76 225.665 1455.84 225.335 1453.93 225.335Z" fill="#005b50"/>
</svg>
